Coordinates
version=1
nRows=16
nColumns=40
inDegrees=yes

Units are S.I. units (second, meters, Newtons, ...)
Angles are in degrees.

endheader
time	pelvis_tilt	pelvis_list	pelvis_rotation	pelvis_tx	pelvis_ty	pelvis_tz	hip_flexion_r	hip_adduction_r	hip_rotation_r	knee_angle_r	knee_angle_r_beta	ankle_angle_r	subtalar_angle_r	mtp_angle_r	hip_flexion_l	hip_adduction_l	hip_rotation_l	knee_angle_l	knee_angle_l_beta	ankle_angle_l	subtalar_angle_l	mtp_angle_l	lumbar_extension	lumbar_bending	lumbar_rotation	arm_flex_r	arm_add_r	arm_rot_r	elbow_flex_r	pro_sup_r	wrist_flex_r	wrist_dev_r	arm_flex_l	arm_add_l	arm_rot_l	elbow_flex_l	pro_sup_l	wrist_flex_l	wrist_dev_l
     45.23892857	     -6.14219971	     -5.31932339	      7.21186128	      1.06261817	      0.92167434	      0.46538989	      1.77318601	      3.77074615	    -20.18234427	      8.17494162	      8.17494162	     13.65346647	      2.63805647	     -6.82780196	     30.36739926	     -8.01450314	     -3.24334963	     18.38423220	     18.38423220	      3.37055705	     -4.21499344	      5.45181939	     -8.34367296	      5.36433061	      4.08503346	     41.13698887	    -19.98549334	    -10.38188170	     86.52319157	     44.98888153	      0.00000000	      0.00000000	     -8.23666046	     -6.12742380	     -4.47322955	     26.78562840	     44.85490600	      0.00000000	      0.00000000
     45.25285714	     -6.16435896	     -5.31638762	      6.99628366	      1.06351573	      0.92073139	      0.46334660	      1.58731928	      3.58176124	    -19.87131627	      8.72229646	      8.72229646	     14.39651634	      2.44205765	     -6.11720111	     30.01149357	     -7.76724727	     -2.88542331	     18.74279672	     18.74279672	      2.19600526	     -5.95932312	      3.30870068	     -8.08558640	      5.24373065	      4.27537170	     40.67887496	    -19.59919783	    -11.14906727	     84.51574700	     45.08646154	      0.00000000	      0.00000000	     -7.91004248	     -6.41218379	     -4.45535254	     27.26933676	     44.88993036	      0.00000000	      0.00000000
     45.26678571	     -6.01931793	     -5.25876581	      6.79702805	      1.06458919	      0.92013864	      0.46121174	      1.20309135	      3.33826983	    -19.57311087	      9.28297540	      9.28297540	     15.24511853	      2.41470215	     -4.91137492	     29.46057554	     -7.54853910	     -2.59585188	     19.11603459	     19.11603459	      1.01152877	     -7.60487159	      0.56765455	     -8.09436761	      5.08267305	      3.92904426	     40.17801387	    -18.83837080	    -10.93736993	     83.36166218	     45.13410584	      0.00000000	      0.00000000	     -7.68519853	     -6.75534135	     -4.44636784	     27.65976719	     44.97105387	      0.00000000	      0.00000000
     45.28071429	     -5.81193851	     -5.16590525	      6.60107000	      1.06574635	      0.91971203	      0.45900960	      0.76190066	      3.05803120	    -19.30868555	      9.82476092	      9.82476092	     15.60700411	      2.19622756	     -4.96632635	     29.14942765	     -7.41238337	     -2.53535557	     20.14349901	     20.14349901	      1.27277997	     -8.47796347	      0.32194252	     -8.16742079	      4.83224331	      3.92513586	     39.09916080	    -18.59188360	    -10.79875650	     82.75521756	     45.14624594	      0.00000000	      0.00000000	     -7.18104396	     -7.09486528	     -4.49307408	     27.84808188	     44.99464052	      0.00000000	      0.00000000
     45.29464286	     -5.79672609	     -5.10798166	      6.41705684	      1.06654662	      0.91918469	      0.45655415	      0.80087117	      2.69413860	    -18.84289277	     10.85395221	     10.85395221	     16.09817946	      1.57305794	     -4.80189370	     29.03777176	     -7.19212391	     -2.04552916	     21.03410716	     21.03410716	      1.48396555	     -9.79607046	      0.28423473	     -8.06074979	      4.72886737	      4.04539266	     38.00905980	    -18.45643157	    -10.67088532	     81.58566271	     45.17908127	      0.00000000	      0.00000000	     -6.33285501	     -7.40855598	     -4.53380027	     28.09729550	     45.03296618	      0.00000000	      0.00000000
     45.30857143	     -5.50413711	     -4.98853305	      6.26615100	      1.06776915	      0.91935347	      0.45398744	      0.28217813	      2.36032904	    -18.60547605	     11.40954704	     11.40954704	     16.27162929	      1.35818784	     -4.79307095	     28.56709445	     -7.02655899	     -1.88740858	     21.85661273	     21.85661273	      2.02340172	    -10.46209479	      0.04635856	     -8.26930014	      4.53036397	      3.83023872	     36.66820554	    -17.98139730	    -10.41079129	     80.95779109	     45.18552743	      0.00000000	      0.00000000	     -5.63703248	     -7.76592872	     -4.56444354	     28.29117163	     45.05349159	      0.00000000	      0.00000000
     45.32250000	     -5.42505731	     -4.86570541	      6.09039036	      1.06856994	      0.91919892	      0.45121064	      0.52711611	      1.82840368	    -18.07968895	     12.97429539	     12.97429539	     16.73260582	      0.46076010	     -4.57523362	     28.47426048	     -6.73282388	     -1.35374261	     22.86607022	     22.86607022	      2.58170144	    -11.79910788	      0.26827067	     -8.18372092	      4.30268790	      4.01448431	     35.36316761	    -18.14943586	    -10.08407328	     79.28993710	     45.22650440	      0.00000000	      0.00000000	     -4.63283400	     -8.06190260	     -4.58222071	     28.39631713	     45.08917444	      0.00000000	      0.00000000
     45.33642857	     -5.08358552	     -4.81146774	      6.01288499	      1.06987689	      0.91988808	      0.44832416	      0.03004750	      1.52325023	    -17.88320894	     13.64567281	     13.64567281	     16.73676921	      0.25228858	     -4.55814020	     27.89543946	     -6.59306018	     -1.13792933	     23.48502533	     23.48502533	      3.24957482	    -12.26631337	      0.06900061	     -8.40143911	      4.21742510	      3.69587506	     33.77819030	    -17.57687521	     -9.72316657	     78.56932055	     45.23115453	      0.00000000	      0.00000000	     -3.80525828	     -8.38470680	     -4.60000865	     28.60555715	     45.10903460	      0.00000000	      0.00000000
     45.35035714	     -5.03131657	     -4.59510109	      5.79112604	      1.07069873	      0.92015400	      0.44524354	      0.51817059	      0.79298562	    -17.35013450	     15.62029787	     15.62029787	     17.08490520	     -0.73765821	     -4.39124570	     27.65225930	     -6.21226629	     -0.87241094	     24.17815640	     24.17815640	      4.04749262	    -13.16230876	      0.68429342	     -8.27943682	      3.89644891	      3.95125287	     32.23629634	    -17.96377854	     -8.97904125	     76.31105728	     45.27652324	      0.00000000	      0.00000000	     -2.57327970	     -8.65684301	     -4.57210926	     28.45442851	     45.14553248	      0.00000000	      0.00000000
     45.36428571	     -4.78765745	     -4.45443998	      5.64136750	      1.07185360	      0.92098894	      0.44207133	      0.57316081	      0.21478212	    -17.02409758	     17.14169963	     17.14169963	     17.10647091	     -1.28599017	     -4.42308747	     27.08270356	     -5.96498824	     -0.82315009	     24.63484009	     24.63484009	      4.84899456	    -13.50548200	      0.95215359	     -8.34839908	      3.72654665	      3.88590062	     30.58914560	    -17.85390936	     -8.27311557	     74.68012490	     45.30046043	      0.00000000	      0.00000000	     -1.46087606	     -8.93791119	     -4.56272408	     28.44853258	     45.17670989	      0.00000000	      0.00000000
     45.37821429	     -4.42638966	     -4.56361560	      5.58962438	      1.07323649	      0.92224839	      0.43882731	      0.30543000	     -0.02661233	    -16.89846092	     18.22230017	     18.22230017	     16.82367873	     -1.51998286	     -4.51805750	     26.31885269	     -5.95329178	     -0.66919322	     24.88491121	     24.88491121	      5.50237711	    -13.69084873	      0.83396920	     -8.52991856	      3.90558798	      3.49943799	     28.69862321	    -17.23798966	     -7.79867065	     73.75085893	     45.30636167	      0.00000000	      0.00000000	     -0.55534333	     -9.20759155	     -4.57561916	     28.68158830	     45.19709619	      0.00000000	      0.00000000
     45.39214286	     -4.46749585	     -4.23181163	      5.28347272	      1.07405054	      0.92286961	      0.43549781	      1.29374566	     -1.05875906	    -16.34561035	     20.89385354	     20.89385354	     16.68178756	     -2.51382126	     -5.23802748	     25.81564118	     -5.51746310	     -1.01470345	     24.96105618	     24.96105618	      6.18694217	    -13.79078077	      1.14967982	     -8.30837137	      3.49771016	      3.90822265	     26.85171399	    -17.70887779	     -6.89984076	     71.22502487	     45.35247468	      0.00000000	      0.00000000	      0.83628306	     -9.40842316	     -4.56936902	     28.77715281	     45.23312646	      0.00000000	      0.00000000
     45.40607143	     -4.32509113	     -4.19973783	      5.10049744	      1.07509166	      0.92390406	      0.43225282	      1.85566720	     -1.61914416	    -15.86162269	     22.97638926	     22.97638926	     15.73854960	     -3.64651707	     -6.95584765	     25.17962871	     -5.36064989	     -1.09091336	     25.08829830	     25.08829830	      7.13356965	    -13.75551619	      2.05031446	     -8.15124544	      3.46988871	      3.60802339	     25.69389203	    -17.57015172	     -4.97415741	     67.63369457	     45.40027396	      0.00000000	      0.00000000	      2.11766043	     -9.62423986	     -4.52192814	     28.12510492	     45.29125006	      0.00000000	      0.00000000
     45.42000000	     -4.19089787	     -4.01173058	      4.86681072	      1.07608086	      0.92492372	      0.42891298	      2.70461838	     -2.49091650	    -15.44594138	     25.63957410	     25.63957410	     15.12057530	     -4.40916437	     -7.86496499	     24.36649595	     -5.08649664	     -1.48600569	     24.90071659	     24.90071659	      7.64244618	    -13.59868506	      1.94127699	     -8.14425204	      3.27126637	      3.54245830	     23.64003161	    -17.34543301	     -4.43427941	     66.09298937	     45.42319072	      0.00000000	      0.00000000	      3.17759214	     -9.90049044	     -4.63480648	     28.70976681	     45.33468850	      0.00000000	      0.00000000
     45.43392857	     -4.11690018	     -3.87702772	      4.62111691	      1.07687760	      0.92577003	      0.42564779	      3.85749769	     -3.33487253	    -14.90946657	     28.63772728	     28.63772728	     14.15296586	     -5.45473249	     -9.11231509	     23.63108056	     -4.84827468	     -1.84041245	     24.69907114	     24.69907114	      8.08175584	    -13.48923252	      1.80248960	     -8.06522681	      3.15508391	      3.62777330	     21.59397215	    -17.20278052	     -3.84566340	     64.10595755	     45.45924461	      0.00000000	      0.00000000	      4.32058989	    -10.11856278	     -4.74584580	     29.37971611	     45.37866774	      0.00000000	      0.00000000
     45.44785714	     -4.06037604	     -3.76941011	      4.35597194	      1.07745964	      0.92651566	      0.42245320	      5.21912148	     -4.15308884	    -14.25669104	     31.84633664	     31.84633664	     12.73949495	     -6.79053637	    -10.74213836	     22.92621133	     -4.64471034	     -2.21885034	     24.47432217	     24.47432217	      8.42280447	    -13.39090649	      1.63217680	     -7.97631135	      3.08150031	      3.66433756	     19.64487532	    -17.01283469	     -3.24170549	     61.76934528	     45.50653930	      0.00000000	      0.00000000	      5.45119979	    -10.33076300	     -4.86819231	     30.15255525	     45.42440738	      0.00000000	      0.00000000
